<?xml version="1.0" ?><svg id="Layer_1" style="enable-background:new 0 0 512 512;" version="1.1" viewBox="0 0 512 512" xml:space="preserve" xmlns="http://www.w3.org/2000/svg" xmlns:xlink="http://www.w3.org/1999/xlink"><style type="text/css">
	.st0{fill-rule:evenodd;clip-rule:evenodd;fill:#003473;}
	.st1{fill-rule:evenodd;clip-rule:evenodd;fill:#FFFFFF;}
	.st2{fill-rule:evenodd;clip-rule:evenodd;fill:#FCB131;}
	.st3{fill-rule:evenodd;clip-rule:evenodd;fill:#ED1B2E;}
</style><g><path class="st0" d="M489.2,94.5H21.9c-9.1,0-14.8,1.4-17.9,4.3c-2.7,3.3-4,8.7-4,16.7v29.9v24.1v172.3V367v28.8   c0,14.3,7.4,21.7,21.9,21.7h467.3c15.2,0,22.8-7.4,22.8-21.7V367v-25.2V169.4v-24.1v-29.9C512,101.3,504.4,94.5,489.2,94.5z"/><g><path class="st1" d="M409,164.4c0-1.7,1.4-3.1,3.1-3.1c1.7,0,3.1,1.4,3.1,3.1c0,1.7-1.4,3.1-3.1,3.1    C410.3,167.5,409,166.1,409,164.4L409,164.4z M412,166.7c1.3,0,2.3-1.1,2.3-2.4c0-1.3-1-2.4-2.3-2.4c-1.3,0-2.3,1.1-2.3,2.4    C409.7,165.7,410.7,166.7,412,166.7L412,166.7z M411.6,165.7H411V163h1.1c0.2,0,0.5,0,0.7,0.1c0.2,0.1,0.3,0.4,0.3,0.7    c0,0.3-0.2,0.6-0.5,0.7l0.5,1.2h-0.7l-0.4-1.1h-0.5V165.7v-1.5h0.3c0.1,0,0.3,0,0.4-0.1c0.1-0.1,0.2-0.2,0.2-0.3    c0-0.1-0.1-0.2-0.2-0.3c-0.1-0.1-0.3,0-0.4,0h-0.3v0.7V165.7L411.6,165.7z"/><polygon class="st1" points="113.4,161.3 113,161.3 113,160.9 113,156.2 113,155.8 113.4,155.8 133.9,155.8 133.9,150.6     113.4,150.6 113,150.6 113,150.2 113,145.5 113,145.1 113.4,145.1 135,145.1 135,139.2 105.2,139.2 105.2,167.5 135.5,167.5     135.5,161.3 113.4,161.3   "/><path class="st1" d="M165.4,139.2v16.4c0,2.1-0.4,3.5-1.3,4.3c-0.8,0.8-2.1,1.2-3.9,1.2h-8.5c-1.8,0-3.1-0.4-3.9-1.2    c-0.9-0.9-1.3-2.3-1.3-4.3v-16.4h-7.8v18.4c0,3.4,0.8,5.9,2.5,7.6c1.8,1.8,4.6,2.7,8.6,2.7h12.3c7.6,0,11.1-3.3,11.1-10.3v-18.4    H165.4L165.4,139.2z"/><path class="st1" d="M281.9,157.1c0,1.5-0.3,2.4-0.9,3c-0.8,0.8-2.2,1-4.5,1h-9.2c-2,0-3.2-0.4-4-1.2c-1.1-1.1-1.3-2.8-1.3-5.1    v-3.1c0-3.8,1-6.2,5.8-6.2h9.4c1.8,0,3,0.3,3.7,1c0.5,0.5,0.7,1.2,0.7,2.1v0.4h7.8c0-3.5-0.3-6.1-1.9-7.7    c-1.8-1.8-5.1-2.5-11.4-2.5h-10.1c-4.8,0-7.8,0.8-9.6,2.6c-1.6,1.6-2.3,4-2.3,7.5v8.7c0,3.5,0.8,5.9,2.3,7.5    c1.8,1.8,4.8,2.6,9.6,2.6h13.8c8.7,0,9.9-4,9.9-8.4v-2.3H281.9L281.9,157.1z"/><path class="st1" d="M404.3,141.7c-1.7-1.7-4.6-2.5-9-2.5h-25.5v28.3h25.5c8.2,0,11.2-2.6,11.2-9.7v-8.9    C406.5,145.5,405.8,143.2,404.3,141.7L404.3,141.7z M398.7,155.2c0,2.2-0.4,3.6-1.3,4.4c-0.9,0.9-2.1,1.2-4.3,1.2H378h-0.4v-0.4    V146v-0.4h0.4h15.2c2.1,0,3.4,0.4,4.3,1.2c0.9,0.9,1.3,2.2,1.3,4.4V155.2L398.7,155.2z"/><path class="st1" d="M206,156c3.8-0.9,4.5-3.1,4.5-6.8v-1.9c0-3-0.6-5-1.9-6.3c-1.3-1.3-3.3-1.9-6.1-1.9H177v28.3h7.8v-7.2v-0.4    h0.4h13.5c1.4,0,2.3,0.3,2.9,0.9c0.7,0.7,1,1.8,1,3.6v3.1h7.8V163c0-4.3-1.7-6-4.3-6.5l-0.3-0.1v-0.3L206,156L206,156z M203,150    c0,1.2-0.3,2-0.8,2.6c-0.6,0.6-1.5,0.9-2.7,0.9h-14.2h-0.4v-0.4V146v-0.4h0.4h13.4c1.6,0,2.8,0.2,3.5,0.9c0.5,0.6,0.8,1.4,0.8,2.6    V150L203,150z"/><path class="st1" d="M249,141.5c-1.8-1.8-4.8-2.6-9.6-2.6h-13.8c-4.8,0-7.8,0.8-9.6,2.6c-1.6,1.6-2.3,4-2.3,7.5v8.7    c0,3.5,0.8,5.9,2.3,7.5c1.8,1.8,4.8,2.6,9.6,2.6h13.8c7.4,0,11.9-1.7,11.9-10.1V149C251.4,145.5,250.6,143.1,249,141.5L249,141.5z     M243.4,154.9c0,2.3-0.2,4-1.3,5.1c-0.8,0.8-2.1,1.2-4,1.2h-11c-2,0-3.2-0.4-4-1.2c-1.1-1.1-1.3-2.8-1.3-5.1v-3.1    c0-3.8,1-6.2,5.8-6.2h10.1c2,0,3.5,0.4,4.4,1.4c1.2,1.2,1.4,3.2,1.4,4.9V154.9L243.4,154.9z"/><path class="st1" d="M315.8,139.2h-10.7l-14.7,28.3h8.7l2.4-4.9l0.1-0.2h0.3h17.4h0.3l0.1,0.2l2.6,4.9h8.6L315.8,139.2    L315.8,139.2z M316,156.9h-11h-0.7l0.3-0.6l5.4-11l0.4-0.7l0.4,0.7l5.6,11l0.3,0.6H316L316,156.9z"/><path class="st1" d="M361.1,156c3.8-0.9,4.5-3.1,4.5-6.8v-1.9c0-3-0.6-5-1.9-6.3c-1.3-1.3-3.3-1.9-6.1-1.9h-25.5v28.3h7.8v-7.2    v-0.4h0.4h13.5c1.4,0,2.3,0.3,2.9,0.9c0.7,0.7,1,1.8,1,3.6v3.1h7.8V163c0-4.3-1.7-6-4.3-6.5l-0.3-0.1v-0.3L361.1,156L361.1,156z     M358.1,150c0,1.2-0.3,2-0.8,2.6c-0.6,0.6-1.5,0.9-2.7,0.9h-14.2h-0.4v-0.4V146v-0.4h0.4h13.4c1.6,0,2.8,0.2,3.5,0.9    c0.5,0.6,0.8,1.4,0.8,2.6V150L358.1,150z"/><path class="st2" d="M256,348.3c17,15.5,39.5,24.9,64.2,24.9c52.8,0,95.6-43.1,95.6-96.2c0-53.1-42.8-96.2-95.6-96.2    c-24.7,0-47.2,9.4-64.2,24.9c-19.3,17.6-31.4,43-31.4,71.3C224.6,305.2,236.7,330.7,256,348.3L256,348.3z"/><path class="st2" d="M403.1,330.6c0-1.7,1.4-3.1,3.1-3.1c1.7,0,3.1,1.4,3.1,3.1c0,1.7-1.4,3.1-3.1,3.1    C404.4,333.7,403.1,332.3,403.1,330.6L403.1,330.6z M406.1,332.9c1.3,0,2.3-1.1,2.3-2.4c0-1.3-1-2.4-2.3-2.4    c-1.3,0-2.3,1.1-2.3,2.4C403.8,331.9,404.9,332.9,406.1,332.9L406.1,332.9z M405.7,331.9h-0.6v-2.7h1.1c0.2,0,0.5,0,0.7,0.1    c0.2,0.1,0.3,0.4,0.3,0.7c0,0.3-0.2,0.6-0.5,0.7l0.5,1.2h-0.7l-0.4-1.1h-0.5V331.9v-1.5h0.3c0.1,0,0.3,0,0.4-0.1    c0.1-0.1,0.2-0.2,0.2-0.3c0-0.1-0.1-0.2-0.2-0.3c-0.1-0.1-0.3-0.1-0.4-0.1h-0.3v0.7V331.9L405.7,331.9z"/><path class="st3" d="M286.9,266.8c-0.4-3.5-0.9-6.9-1.6-10.2h-58.6c0.7-3.5,1.7-6.9,2.8-10.2h53c-1.2-3.5-2.5-6.9-4-10.2h-44.9    c1.6-3.5,3.5-6.9,5.5-10.2h33.9c-2.2-3.6-4.6-7-7.3-10.2h-19.3c3-3.6,6.2-7,9.6-10.2c-17-15.5-39.5-24.9-64.2-24.9    c-52.8,0-95.6,43.1-95.6,96.2c0,53.1,42.8,96.2,95.6,96.2c24.7,0,47.2-9.4,64.2-24.9l0,0h0c3.5-3.2,6.7-6.6,9.7-10.2h-19.3    c-2.6-3.2-5.1-6.6-7.3-10.2h33.9c2-3.3,3.9-6.7,5.5-10.2h-44.9c-1.5-3.3-2.9-6.7-4.1-10.2h53c1.1-3.3,2-6.7,2.8-10.2    c0.7-3.3,1.3-6.7,1.6-10.2c0.3-3.3,0.5-6.7,0.5-10.2C287.4,273.5,287.3,270.1,286.9,266.8L286.9,266.8z"/><path class="st1" d="M403.1,299.3c0-1.7,1.4-3.1,3.1-3.1c1.7,0,3.1,1.4,3.1,3.1c0,1.7-1.4,3.1-3.1,3.1    C404.4,302.4,403.1,301,403.1,299.3L403.1,299.3z M406.1,301.6c1.3,0,2.3-1.1,2.3-2.4c0-1.3-1-2.4-2.3-2.4c-1.3,0-2.3,1.1-2.3,2.4    C403.8,300.6,404.9,301.6,406.1,301.6L406.1,301.6z M405.7,300.6h-0.6v-2.7h1.1c0.2,0,0.5,0,0.7,0.1c0.2,0.1,0.3,0.4,0.3,0.7    c0,0.3-0.2,0.6-0.5,0.7l0.5,1.2h-0.7l-0.4-1.1h-0.5V300.6v-1.5h0.3c0.1,0,0.3,0,0.4-0.1c0.1-0.1,0.2-0.2,0.2-0.3    c0-0.1-0.1-0.2-0.2-0.3c-0.1-0.1-0.3,0-0.4,0h-0.3v0.7V300.6L405.7,300.6z"/><path class="st0" d="M223.5,304.7c-3.2,0.9-5.4,1.3-7.8,1.3c-4.8,0-7.9-3.1-7.9-8.7c0-1.1,0.1-2.3,0.3-3.6l0.6-3.9l0.5-3.1    l4.5-27.1h10l-1.2,5.9h6.2l-1.5,10H221l-2.7,16.2c-0.1,0.7-0.2,1.3-0.2,1.6c0,2,1.1,2.9,3.5,2.9c1.2,0,2.1-0.1,3.2-0.4    L223.5,304.7L223.5,304.7z"/><path class="st0" d="M255.5,304.4c-3.6,1.1-7,1.6-10.6,1.6c-11.1,0-17.6-6.1-17.6-17.8c0-13.6,7.7-23.7,18.1-23.7    c8.5,0,14,5.6,14,14.4c0,2.9-0.4,5.8-1.3,9.8h-20.6c-0.1,0.6-0.1,0.9-0.1,1.2c0,4.6,3.1,7,9.1,7c3.7,0,7.1-0.8,10.8-2.5    L255.5,304.4L255.5,304.4z M249.4,280.8c0.1-0.8,0.1-1.5,0.1-2c0-3.2-1.8-5.1-4.9-5.1c-3.3,0-5.7,2.5-6.6,7.1L249.4,280.8    L249.4,280.8z"/><polygon class="st0" points="144.3,305.2 133.9,305.2 139.8,267.7 126.6,305.2 119.5,305.2 118.6,267.9 112.4,305.2 102.3,305.2     110.4,256.4 125.3,256.4 125.8,286.6 135.8,256.4 152.2,256.4 144.3,305.2   "/><path class="st0" d="M169.2,287.6c-1.1-0.1-1.3-0.2-2-0.2c-5.9,0-8.9,2.3-8.9,6c0,2.5,1.5,4,3.7,4    C167,297.5,169,293.4,169.2,287.6L169.2,287.6z M177.4,305.2h-9l0.2-4.1c-2.3,3.1-5.4,4.8-10.9,4.8c-5,0-9.2-4.4-9.2-10.8    c0-1.9,0.3-3.6,0.8-5.2c1.6-6.1,7.8-10,17.2-10.1c1.2,0,3,0,4.6,0.2c0.3-1.3,0.4-1.9,0.4-2.6c0-2.6-2.2-3.5-7-3.5    c-3,0-6.3,0.5-8.6,1.2l-1.4,0.4l-0.6,0.2l1.4-8.9c4.9-1.5,8.2-2.1,12.1-2.1c8.9,0,13.6,4,13.6,11.6c0,2,0.2,3.4-0.5,7.9l-2.2,14.1    l-0.4,2.5l-0.3,2l-0.2,1.4L177.4,305.2L177.4,305.2z"/><path class="st0" d="M305.5,265.9c2.9,0,5.6,0.8,9.3,2.6l1.7-10.6c-0.9-0.4-1.2-0.5-2.5-1l-4.3-1.1c-1.3-0.3-2.9-0.5-4.6-0.5    c-5.1,0-8.2,0.1-11.3,2c-1.7,1-3.8,2.5-6.2,5.2l-1.2-0.4l-10.6,7.6l0.5-4.3h-11l-6.3,39.7h10.4l3.8-21.4c0,0,1.5-2.9,2.2-3.8    c1.9-2.6,3.6-2.6,5.8-2.5c0.3,0,0.6,0,0.7,0c-0.3,2.3-0.5,4.8-0.5,7.5c0,13,7.3,21.1,18.5,21.1c2.9,0,5.3-0.4,9.2-1.4l1.8-11.1    c-3.4,1.7-6.3,2.5-8.8,2.5c-6,0-9.7-4.5-9.7-11.9C292.3,273.4,297.7,265.9,305.5,265.9L305.5,265.9z"/><path class="st0" d="M393.2,256.4l-2.3,13.9c-2.5-3.8-5.5-5.6-9.5-5.6c-5.5,0-10.4,3.1-13.6,9l0-0.1l-6.6-3.9l0.5-4.3h-11    l-6.3,39.7h10.4l3.4-21.4c0,0,2.7-3,3.3-3.9c1.5-2,3.2-2.4,4.6-2.5c-1.2,3.4-1.9,7.3-1.9,11.8c0,9.9,5.1,16.5,12.7,16.5    c3.8,0,6.7-1.3,9.6-4.4l-0.5,3.9h9.8l7.9-48.8H393.2L393.2,256.4z M380.5,295.9c-3.5,0-5.3-2.6-5.3-7.8c0-7.8,3.3-13.3,8.1-13.3    c3.6,0,5.5,2.7,5.5,7.8C388.8,290.4,385.4,295.9,380.5,295.9L380.5,295.9z"/><path class="st0" d="M332.7,287.6c-1.1-0.1-1.3-0.2-2-0.2c-5.9,0-8.9,2.3-8.9,6c0,2.5,1.5,4,3.7,4    C330.6,297.5,332.6,293.4,332.7,287.6L332.7,287.6z M340.9,305.2h-9l0.2-4.1c-2.3,3.1-5.4,4.8-10.9,4.8c-5,0-9.6-4.3-9.5-10.9    c0.1-9.4,7.1-15.3,18.3-15.3c1.2,0,3,0,4.6,0.2c0.3-1.3,0.4-1.9,0.4-2.6c0-2.6-2.1-3.5-7-3.5c-3,0-6.3,0.5-8.6,1.2l-1.4,0.4    l-0.6,0.2l1.4-8.9c4.9-1.5,8.2-2.1,12.1-2.1c8.9,0,13.6,4,13.6,11.6c0,2,0.2,3.4-0.5,7.9l-2.2,14.1l-0.4,2.5l-0.3,2l-0.2,1.4    L340.9,305.2L340.9,305.2z"/><path class="st0" d="M199,274c2,0,4.8,0.2,7.8,0.6l1.5-9.2c-3-0.5-6.9-0.8-9.3-0.8c-11.6,0-15.4,6.2-15.4,13.6    c0,4.7,2.3,8.3,7.8,10.9c4.2,2,4.9,2.4,4.9,4.2c0,2.5-2.1,3.9-6.2,3.9c-3.1,0-6-0.5-9.3-1.6l-1.2,9.1l0.2,0l1.9,0.4    c0.6,0.1,1.5,0.3,2.7,0.4c2.5,0.2,4.5,0.4,5.9,0.4c11.5,0,16.3-4.5,16.3-13.2c0-5.4-2.6-8.6-7.8-11c-4.3-2-4.9-2.3-4.8-4.1    C194,275.6,195.9,274.1,199,274L199,274z"/><path class="st1" d="M319.3,254.9l-1.7,10.6c-3.7-1.9-6.4-2.6-9.3-2.6c-7.7,0-13.2,7.5-13.2,18.3c0,7.4,3.7,11.9,9.7,11.9    c2.6,0,5.4-0.8,8.8-2.5l-1.8,11.1c-3.8,1-6.3,1.4-9.2,1.4c-11.2,0-18.1-8.1-18.1-21.1c0-17.4,9.6-29.6,23.4-29.6    c1.8,0,3.3,0.2,4.6,0.5l4.3,1.1C318.1,254.4,318.3,254.5,319.3,254.9L319.3,254.9z"/><path class="st1" d="M285.9,262.1c-0.3-0.1-0.7-0.1-1-0.1c-3.4,0-5.3,1.8-8.5,6.4l0.9-6h-9.4l-6.3,39.7h10.4    c3.7-24.3,4.7-28.5,9.7-28.5c0.3,0,0.3,0,0.8,0c0.9-4.8,2.2-8.3,3.9-11.5L285.9,262.1L285.9,262.1z"/><path class="st1" d="M226.1,301.7c-2.8,0.9-5.1,1.3-7.5,1.3c-5.3,0-8.2-3.1-8.2-8.7c0-1.1,0.1-2.3,0.3-3.6l0.6-3.9l0.5-3.1    l4.5-27.1h10.3l-1.2,5.9h5.3l-1.4,9.7h-5.3l-2.7,16.6c-0.1,0.7-0.2,1.3-0.2,1.6c0,2,1.1,2.9,3.5,2.9c1.2,0,2.1-0.1,2.8-0.4    L226.1,301.7L226.1,301.7z"/><path class="st1" d="M186.3,275c0,5,2.4,8.5,7.9,11.1c4.2,2,4.8,2.6,4.8,4.4c0,2.5-1.9,3.6-5.9,3.6c-3.1,0-6-0.5-9.3-1.6l-1.4,9.2    l0.5,0.1l1.9,0.4c0.6,0.1,1.5,0.2,2.7,0.3c2.5,0.2,4.4,0.3,5.7,0.3c10.9,0,16-4.2,16-13.2c0-5.4-2.1-8.6-7.3-11    c-4.3-2-4.8-2.5-4.8-4.3c0-2.1,1.7-3.2,5.1-3.2c2,0,4.8,0.2,7.4,0.6l1.5-9.2c-2.7-0.4-6.8-0.8-9.1-0.8    C190.2,261.6,186.2,267.7,186.3,275L186.3,275z"/><path class="st1" d="M398.5,302.2h-9.8l0.5-3.9c-2.9,3.1-5.8,4.4-9.6,4.4c-7.5,0-12.5-6.6-12.5-16.5c0-13.2,7.7-24.3,16.9-24.3    c4,0,7.1,1.7,9.9,5.4l2.3-13.9h10.2L398.5,302.2L398.5,302.2z M383.2,292.8c4.8,0,8.2-5.5,8.2-13.4c0-5-1.9-7.8-5.5-7.8    c-4.7,0-8.1,5.5-8.1,13.3C377.9,290.2,379.7,292.8,383.2,292.8L383.2,292.8z"/><path class="st1" d="M257.8,301.3c-3.6,1.1-7,1.6-10.6,1.6c-11.6,0-17.6-6.1-17.6-17.8c0-13.6,7.7-23.7,18.1-23.7    c8.5,0,14,5.6,14,14.4c0,2.9-0.4,5.8-1.3,9.8h-20.6c-0.1,0.6-0.1,0.9-0.1,1.2c0,4.6,3.1,7,9.1,7c3.7,0,7.1-0.8,10.8-2.5    L257.8,301.3L257.8,301.3z M252,277.7c0.1-0.8,0.1-1.5,0.1-2c0-3.2-1.8-5.1-4.9-5.1c-3.3,0-5.7,2.5-6.6,7.1L252,277.7L252,277.7z"/><polygon class="st1" points="146.9,302.2 136.5,302.2 142.5,264.7 129.2,302.2 122.1,302.2 121.3,264.9 115,302.2 105.3,302.2     113.4,253.4 128.3,253.4 128.8,283.6 138.8,253.4 154.9,253.4 146.9,302.2   "/><path class="st1" d="M172.5,284.5c-1.1-0.1-1.6-0.2-2.3-0.2c-5.9,0-8.9,2-8.9,6c0,2.5,1.5,4,3.7,4    C169.2,294.4,172.3,290.4,172.5,284.5L172.5,284.5z M180,302.2h-8.6l0.2-4.1c-2.6,3.3-6.1,4.8-10.9,4.8c-5.6,0-9.5-4.4-9.5-10.8    c0-9.7,6.7-15.3,18.2-15.3c1.2,0,2.7,0.1,4.2,0.3c0.3-1.3,0.4-1.9,0.4-2.6c0-2.6-1.8-3.6-6.7-3.6c-3,0-6.3,0.4-8.6,1.1l-1.4,0.4    l-0.9,0.3l1.4-8.9c5.2-1.5,8.6-2.1,12.4-2.1c8.9,0,13.6,4,13.6,11.6c0,2-0.2,3.4-0.8,7.9l-2.2,14.1l-0.4,2.5l-0.3,2l-0.2,1.4    L180,302.2L180,302.2z"/><path class="st1" d="M336,284.5c-1.1-0.1-1.6-0.2-2.3-0.2c-5.9,0-8.9,2-8.9,6c0,2.5,1.5,4,3.7,4    C332.8,294.4,335.8,290.4,336,284.5L336,284.5z M343.6,302.2H335l0.2-4.1c-2.6,3.3-6.1,4.8-10.9,4.8c-5.6,0-9.5-4.4-9.5-10.8    c0-9.7,6.7-15.3,18.2-15.3c1.2,0,2.7,0.1,4.2,0.3c0.3-1.3,0.4-1.9,0.4-2.6c0-2.6-1.8-3.6-6.7-3.6c-3,0-6.3,0.4-8.6,1.1l-1.4,0.4    l-0.9,0.3l1.4-8.9c5.2-1.5,8.6-2.1,12.4-2.1c8.9,0,13.6,4,13.6,11.6c0,2-0.2,3.4-0.8,7.9l-2.2,14.1l-0.4,2.5l-0.3,2l-0.2,1.4    L343.6,302.2L343.6,302.2z"/><path class="st1" d="M371.4,262.1c-0.3-0.1-0.7-0.1-1-0.1c-3.4,0-5.3,1.8-8.5,6.4l0.9-6h-9.4l-6.3,39.7h10.4    c3.7-24.3,4.7-28.5,9.7-28.5c0.3,0,0.3,0,0.7,0c0.9-4.8,2.2-8.3,3.9-11.5L371.4,262.1L371.4,262.1z"/></g></g></svg>